<svg width="23" height="19" viewBox="0 0 23 19" fill="none" xmlns="http://www.w3.org/2000/svg">
    <path d="M3.24223 5.13003C3.29378 5.14088 3.34697 5.1414 3.39871 5.13154C3.45046 5.12168 3.49974 5.10164 3.54368 5.0726C3.58763 5.04355 3.62536 5.00606 3.65471 4.96232C3.68406 4.91857 3.70443 4.86944 3.71464 4.81776C3.77007 4.55085 3.90226 4.30596 4.09497 4.11315C4.51293 3.63714 5.24916 3.69519 5.82045 3.70079C6.19101 3.70079 6.5464 3.848 6.80842 4.11003C7.07045 4.37205 7.21766 4.72744 7.21766 5.098C7.21766 5.46856 7.07045 5.82394 6.80842 6.08597C6.5464 6.348 6.19101 6.4952 5.82045 6.4952C5.71427 6.4952 5.61244 6.53738 5.53737 6.61246C5.46229 6.68754 5.42011 6.78937 5.42011 6.89555C5.42011 7.00172 5.46229 7.10355 5.53737 7.17863C5.61244 7.25371 5.71427 7.29589 5.82045 7.29589C6.19048 7.29589 6.54536 7.44289 6.80701 7.70454C7.06866 7.96619 7.21565 8.32106 7.21565 8.69109C7.21565 9.06112 7.06866 9.416 6.80701 9.67765C6.54536 9.9393 6.19048 10.0863 5.82045 10.0863H5.09583C4.77231 10.0872 4.45835 9.97662 4.2068 9.77319C3.95524 9.56976 3.78144 9.28588 3.71464 8.96933C3.70412 8.91781 3.68356 8.86886 3.65413 8.82529C3.6247 8.78171 3.58697 8.74436 3.54311 8.71536C3.49924 8.68636 3.45009 8.66629 3.39847 8.65629C3.34684 8.64628 3.29375 8.64655 3.24223 8.65706C3.19071 8.66758 3.14176 8.68814 3.09818 8.71757C3.05461 8.747 3.01725 8.78473 2.98826 8.82859C2.95926 8.87246 2.93919 8.92161 2.92919 8.97323C2.91918 9.02486 2.91945 9.07795 2.92996 9.12947C3.03396 9.62673 3.30611 10.073 3.70059 10.3931C4.09508 10.7132 4.5878 10.8876 5.09583 10.887H5.82045C6.40403 10.8855 6.96347 10.6539 7.37724 10.2423C7.79102 9.83082 8.02572 9.27265 8.03035 8.68909C8.02992 8.3364 7.94413 7.98906 7.7803 7.67673C7.61647 7.36441 7.37947 7.09638 7.08954 6.89555C7.38032 6.69462 7.61788 6.42602 7.78178 6.11287C7.94567 5.79973 8.03098 5.45144 8.03035 5.098C8.02739 4.51391 7.79323 3.95477 7.37909 3.54289C6.96495 3.131 6.40454 2.89989 5.82045 2.9001C5.01095 2.86047 4.12459 2.91011 3.53048 3.54066C3.2102 3.87094 2.51961 4.90103 3.24223 5.13003ZM17.1238 10.8862C17.7606 10.8854 18.3712 10.6321 18.8215 10.1818C19.2718 9.7315 19.5251 9.12095 19.5259 8.48411V5.30378C19.4738 2.09461 14.4667 2.09501 14.4147 5.30378V8.48411C14.4182 8.8252 14.4932 9.16176 14.6347 9.47211C14.7762 9.78246 14.9812 10.0597 15.2365 10.286C15.4917 10.5123 15.7915 10.6826 16.1166 10.786C16.4416 10.8894 16.7847 10.9235 17.1238 10.8862ZM15.2153 5.30378C15.2159 4.87923 15.3848 4.47222 15.685 4.17201C15.9852 3.87181 16.3922 3.70293 16.8167 3.7024C17.0499 3.66575 17.2883 3.6795 17.5157 3.74272C17.7432 3.80594 17.9544 3.91717 18.1353 4.06891C18.3161 4.22065 18.4623 4.40938 18.5641 4.62239C18.6658 4.83541 18.7208 5.06775 18.7252 5.30378V8.48411C18.6939 10.6392 15.2462 10.6384 15.2153 8.48411V5.30378ZM13.7793 8.40485C13.7644 7.74019 13.4869 7.10847 13.0075 6.64784C12.5281 6.18721 11.8858 5.93513 11.2211 5.94673C10.5732 5.94468 9.94791 6.18452 9.46759 6.61931V5.47833C9.43597 3.90177 11.4865 3.07786 12.5783 4.20923C12.7564 4.38361 12.8956 4.59373 12.9866 4.82576C13.0257 4.92475 13.1024 5.00426 13.1999 5.047C13.2973 5.08974 13.4078 5.09224 13.5071 5.05396C14.1168 4.72007 13.439 3.97263 13.1428 3.64074C11.5518 2.00814 8.63728 3.19356 8.6669 5.47833V8.40485C8.78541 11.658 13.6612 11.6556 13.7793 8.40485ZM11.2211 10.0623C10.9966 10.0733 10.7722 10.0386 10.5615 9.96031C10.3508 9.882 10.1582 9.7617 9.9954 9.6067C9.8326 9.45171 9.70299 9.26526 9.61442 9.05866C9.52586 8.85206 9.48019 8.62963 9.48019 8.40485C9.48019 8.18007 9.52586 7.95763 9.61442 7.75103C9.70299 7.54443 9.8326 7.35798 9.9954 7.20299C10.1582 7.048 10.3508 6.9277 10.5615 6.84938C10.7722 6.77107 10.9966 6.73638 11.2211 6.74742C11.4456 6.73638 11.67 6.77107 11.8807 6.84938C12.0914 6.9277 12.284 7.048 12.4468 7.20299C12.6096 7.35798 12.7392 7.54443 12.8278 7.75103C12.9163 7.95763 12.962 8.18007 12.962 8.40485C12.962 8.62963 12.9163 8.85206 12.8278 9.05866C12.7392 9.26526 12.6096 9.45171 12.4468 9.6067C12.284 9.7617 12.0914 9.882 11.8807 9.96031C11.67 10.0386 11.4456 10.0733 11.2211 10.0623Z" fill="white"/>
    <path d="M22.0096 5.95384C21.9747 5.8545 21.902 5.77292 21.8074 5.72677C21.7128 5.68061 21.6038 5.67359 21.504 5.70724C21.4042 5.74088 21.3217 5.81248 21.2744 5.90651C21.227 6.00055 21.2186 6.10946 21.251 6.20966C22.9148 11.3221 18.6615 16.0589 12.7721 16.7968C12.6723 16.8108 12.5815 16.862 12.5177 16.94C12.454 17.018 12.4219 17.1171 12.428 17.2177C12.434 17.3183 12.4778 17.4128 12.5504 17.4826C12.6231 17.5524 12.7194 17.5923 12.8201 17.5943C19.218 16.84 23.8524 11.5539 22.0096 5.95384ZM20.0295 2.72105C20.3061 2.72105 20.5714 2.61117 20.7669 2.41559C20.9625 2.22001 21.0724 1.95475 21.0724 1.67815C21.0724 1.40156 20.9625 1.13629 20.7669 0.940712C20.5714 0.74513 20.3061 0.635254 20.0295 0.635254C19.7529 0.635254 19.4876 0.74513 19.2921 0.940712C19.0965 1.13629 18.9866 1.40156 18.9866 1.67815C18.9866 1.95475 19.0965 2.22001 19.2921 2.41559C19.4876 2.61117 19.7529 2.72105 20.0295 2.72105ZM20.0295 1.43594C20.0937 1.43594 20.1553 1.46146 20.2008 1.50688C20.2462 1.55231 20.2717 1.61391 20.2717 1.67815C20.2717 1.74239 20.2462 1.804 20.2008 1.84942C20.1553 1.89484 20.0937 1.92036 20.0295 1.92036C19.9653 1.92036 19.9037 1.89484 19.8582 1.84942C19.8128 1.804 19.7873 1.74239 19.7873 1.67815C19.7873 1.61391 19.8128 1.55231 19.8582 1.50688C19.9037 1.46146 19.9653 1.43594 20.0295 1.43594ZM8.52719 15.1706C8.46136 15.0872 8.36512 15.0334 8.25963 15.0211C8.15415 15.0087 8.04806 15.0387 7.96471 15.1045C7.88136 15.1703 7.82757 15.2666 7.81519 15.3721C7.8028 15.4776 7.83282 15.5837 7.89865 15.667L8.66331 16.6358C4.11539 15.699 0.800538 12.3161 0.800538 8.44078C0.800731 7.68235 0.92515 6.92907 1.16886 6.21086C1.18568 6.16091 1.1925 6.10814 1.18893 6.05556C1.18536 6.00298 1.17147 5.95161 1.14805 5.9044C1.12463 5.85719 1.09214 5.81505 1.05243 5.7804C1.01273 5.74574 0.966584 5.71924 0.916638 5.70242C0.866693 5.6856 0.813923 5.67877 0.761341 5.68234C0.70876 5.68591 0.657396 5.69981 0.610183 5.72323C0.562971 5.74665 0.520833 5.77914 0.486177 5.81884C0.45152 5.85855 0.425024 5.90469 0.4082 5.95464C-1.34051 11.2496 2.73821 16.3084 8.6553 17.4485L7.59439 18.2853C7.51104 18.3511 7.45726 18.4473 7.44487 18.5528C7.43248 18.6583 7.4625 18.7644 7.52833 18.8477C7.59416 18.9311 7.69041 18.9849 7.7959 18.9973C7.90138 19.0097 8.00747 18.9796 8.09082 18.9138L9.82431 17.5406C9.88284 17.5038 9.93138 17.4532 9.9656 17.3931C9.99983 17.333 10.0187 17.2654 10.0205 17.1963C10.0179 17.0975 9.98115 17.0027 9.91639 16.9281L8.52719 15.1706Z" fill="white"/>
</svg>
