<svg width="19" height="19" viewBox="0 0 19 19" fill="none" xmlns="http://www.w3.org/2000/svg">
    <g clip-path="url(#clip0_13_4834)">
        <path d="M9.12335 1.0083C5.4238 1.0083 2.41406 4.01925 2.41406 7.72025C2.41406 13.2345 8.45553 18.6187 8.71281 18.8453C8.83009 18.9485 8.97669 19.0003 9.12335 19.0003C9.27001 19.0003 9.41661 18.9486 9.53395 18.8453C9.79111 18.6187 15.8326 13.2346 15.8326 7.72025C15.8326 4.01925 12.8229 1.0083 9.12335 1.0083ZM9.12335 17.5275C7.78765 16.2332 3.65653 11.8919 3.65653 7.72025C3.65653 4.7044 6.10895 2.25077 9.12335 2.25077C12.1378 2.25077 14.5902 4.7044 14.5902 7.72025C14.5902 11.8918 10.4591 16.2331 9.12335 17.5275Z" fill="white"/>
        <path d="M9.12174 4.59375C7.409 4.59375 6.01562 5.99639 6.01562 7.72047C6.01562 9.4446 7.409 10.8472 9.12174 10.8472C10.8345 10.8472 12.2279 9.4446 12.2279 7.72047C12.2279 5.99639 10.8345 4.59375 9.12174 4.59375ZM9.12174 9.60471C8.09408 9.60471 7.25804 8.75945 7.25804 7.72047C7.25804 6.68154 8.09408 5.83622 9.12174 5.83622C10.1494 5.83622 10.9855 6.68148 10.9855 7.72047C10.9855 8.75945 10.1494 9.60471 9.12174 9.60471Z" fill="white"/>
    </g>
    <defs>
        <clipPath id="clip0_13_4834">
            <rect width="19" height="19" fill="white"/>
        </clipPath>
    </defs>
</svg>
