<svg width="13" height="19" viewBox="0 0 13 19" fill="none" xmlns="http://www.w3.org/2000/svg">
    <path d="M12.8771 3.68739L9.31261 0.122871C9.23399 0.0442212 9.12734 2.37512e-05 9.01613 0H0.419355C0.308135 0 0.201471 0.0441819 0.122826 0.122826C0.044182 0.20147 0 0.308135 0 0.419355V18.0323C0 18.1435 0.044182 18.2501 0.122826 18.3288C0.201471 18.4074 0.308135 18.4516 0.419355 18.4516H12.5806C12.6919 18.4516 12.7985 18.4074 12.8772 18.3288C12.9558 18.2501 13 18.1435 13 18.0323V3.98387C13 3.87266 12.9558 3.76601 12.8771 3.68739ZM9.43548 1.43168L11.5681 3.56452H9.43548V1.43168ZM0.83871 17.6129V0.83871H8.59677V3.98387C8.59677 4.09509 8.64095 4.20176 8.7196 4.2804C8.79824 4.35904 8.90491 4.40323 9.01613 4.40323H12.1613V17.6129H0.83871Z" fill="white"/>
</svg>
